<!-- Generator: Adobe Illustrator 18.1.1, SVG Export Plug-In  -->
<svg version="1.1"
	 xmlns="http://www.w3.org/2000/svg" xmlns:xlink="http://www.w3.org/1999/xlink" xmlns:a="http://ns.adobe.com/AdobeSVGViewerExtensions/3.0/"
	 x="0px" y="0px" width="24px" height="18px" viewBox="0 0 24 18" enable-background="new 0 0 24 18" xml:space="preserve">
<defs>
</defs>
<path fill="#27A1C5" d="M1.6,10.6h16.9L14,15.1c-0.6,0.6-0.6,1.6,0,2.3s1.6,0.6,2.3,0l7.3-7.3l0,0c0.1-0.1,0.1-0.2,0.2-0.2
	c0,0,0-0.1,0.1-0.1c0-0.1,0.1-0.1,0.1-0.2c0,0,0-0.1,0-0.1c0-0.1,0-0.1,0-0.2c0-0.1,0-0.2,0-0.2c0,0,0,0,0-0.1c0,0,0,0,0-0.1
	c0-0.1,0-0.2,0-0.2c0-0.1,0-0.1,0-0.2c0,0,0-0.1,0-0.1c0-0.1-0.1-0.1-0.1-0.2c0,0,0-0.1-0.1-0.1c-0.1-0.1-0.1-0.2-0.2-0.2l-7.3-7.3
	c-0.3-0.3-0.7-0.5-1.1-0.5S14.3,0.3,14,0.6c-0.6,0.6-0.6,1.6,0,2.3l4.5,4.5H1.6C0.7,7.4,0,8.1,0,9S0.7,10.6,1.6,10.6z"/>
</svg>
