<svg xmlns="http://www.w3.org/2000/svg" xmlns:xlink="http://www.w3.org/1999/xlink" viewBox="194 -70 364 770" enable-background="new 194 -70 364 770"><circle fill="#fff" stroke="#003351" stroke-width="2" stroke-linecap="round" stroke-linejoin="round" cx="376.5" cy="75.5" r="31"/><path fill="#fff" stroke="#003351" stroke-width="2" stroke-linecap="round" stroke-linejoin="round" d="M376.5 44.5c-2 0-4 .2-6 .6.3 3 2.9 5.4 6 5.4s5.7-2.4 6-5.4c-2-.4-4-.6-6-.6z"/><circle fill="#fff" stroke="#003351" stroke-width="2" stroke-linecap="round" stroke-linejoin="round" cx="376.5" cy="-4.5" r="6"/><path fill="#fff" stroke="#003351" stroke-width="2" stroke-linecap="round" stroke-linejoin="round" d="M376 2v11h8.5l-16 16h7.5v15"/><path fill="#fff" stroke="#003351" stroke-width="2" stroke-linecap="round" stroke-linejoin="round" d="M267 210h218v252h-218zM291 74h170v388h-170z"/><path stroke="#003351" stroke-width="2" stroke-linecap="round" stroke-linejoin="round" fill="none" d="M267 210h218v252h-218z"/><path fill="#fff" stroke="#003351" stroke-width="2" stroke-linecap="round" stroke-linejoin="round" d="M485 272.5h.2c6.2 0 11.8-1.8 16.8-4.9v-52.8c-5-3.1-10.6-4.9-16.8-4.9h-.2v62.6z"/><circle fill="#fff" stroke="#003351" stroke-width="2" stroke-linecap="round" stroke-linejoin="round" cx="518" cy="130" r="10"/><circle fill="#fff" stroke="#003351" stroke-width="2" stroke-linecap="round" stroke-linejoin="round" cx="446.5" cy="564.5" r="10"/><circle fill="#fff" stroke="#003351" stroke-width="2" stroke-linecap="round" stroke-linejoin="round" cx="306.5" cy="564.5" r="10"/><circle fill="#fff" stroke="#003351" stroke-width="2" stroke-linecap="round" stroke-linejoin="round" cx="517.5" cy="-11.5" r="10"/><path fill="#fff" stroke="#003351" stroke-width="2" stroke-linecap="round" stroke-linejoin="round" d="M557-21.6v-47.4h-18v42.2l-17 9.3v10.5h10.5l25-14.1zM495-27v-42h-18v48h.7l24.8 14h9.5v-10.5zM267 272.5h-.2c-6.2 0-11.8-1.8-16.8-4.9v-52.8c5-3.1 10.6-4.9 16.8-4.9h.2v62.6z"/><circle fill="#fff" stroke="#003351" stroke-width="2" stroke-linecap="round" stroke-linejoin="round" cx="235" cy="130" r="10"/><path fill="#fff" stroke="#003351" stroke-width="2" stroke-linecap="round" stroke-linejoin="round" d="M213-27v-42h-18v48h.7l24.8 14h9.5v-10.5zM275-21.6v-47.4h-18v42.2l-17 9.3v10.5h10.5l25-14.1z"/><g fill="#fff" stroke="#003351" stroke-width="2" stroke-linecap="round" stroke-linejoin="round"><circle cx="332.5" cy="128.5" r="22"/><circle cx="332.5" cy="128.5" r="18"/><circle cx="421.5" cy="128.5" r="22"/><circle cx="421.5" cy="128.5" r="18"/></g><circle fill="#fff" stroke="#003351" stroke-width="2" stroke-linecap="round" stroke-linejoin="round" cx="517.5" cy="-11.5" r="10"/><path fill="#fff" stroke="#003351" stroke-width="2" stroke-linecap="round" stroke-linejoin="round" d="M502-7h30v134h-30zM502 133h30v134h-30z"/><circle fill="#fff" stroke="#003351" stroke-width="2" stroke-linecap="round" stroke-linejoin="round" cx="235.5" cy="-11.5" r="10"/><path fill="#fff" stroke="#003351" stroke-width="2" stroke-linecap="round" stroke-linejoin="round" d="M220-7h30v134h-30zM220 133h30v134h-30zM431 462h30v100h-30zM291 462h30v100h-30zM431 668h94v30h-94zM431 568h30v100h-30zM227 668h94v30h-94zM291 568h30v100h-30zM406.6 68h-60.2"/><path fill="#fff" stroke="#003351" stroke-width="2" stroke-linecap="round" stroke-linejoin="round" d="M377 194l-48-24h96zM377 194l-48-24h96z"/><defs><path id="a" d="M377 194l-48-24h96z"/></defs><clipPath id="b"><use xlink:href="#a" overflow="visible"/></clipPath><path clip-path="url(#b)" fill="#fff" stroke="#003351" stroke-width="2" stroke-linecap="round" stroke-linejoin="round" d="M390 166v28M402 166v28M377 166v28M364 166v28M352 166v28M349 180h56"/><circle fill="#fff" stroke="#003351" stroke-width="2" stroke-linecap="round" stroke-linejoin="round" cx="376" cy="267" r="45"/><circle fill="#fff" stroke="#003351" stroke-width="2" stroke-linecap="round" stroke-linejoin="round" cx="376" cy="267" r="37"/><path fill="#fff" stroke="#003351" stroke-width="2" stroke-linecap="round" stroke-linejoin="round" d="M309 344h134v40h-134zM309 364h134"/><path stroke="#003351" stroke-width="2" stroke-linecap="round" stroke-linejoin="round" fill="none" d="M326 344v40M343 344v40M359 344v40M376 344v40M393 344v40M409 344v40M426 344v40"/></svg>