<?xml version="1.0" encoding="utf-8"?>
<!-- Generator: Adobe Illustrator 18.1.1, SVG Export Plug-In . SVG Version: 6.00 Build 0)  -->
<svg version="1.1" id="Layer_1" xmlns="http://www.w3.org/2000/svg" xmlns:xlink="http://www.w3.org/1999/xlink" x="0px" y="0px"
	 viewBox="-135 -68.9 157.5 333.8" enable-background="new -135 -68.9 157.5 333.8" xml:space="preserve">
<g transform="matrix( 1, 0, 0, 1, 18,40) ">
	<g>
		<path id="Layer1_0_1_STROKES" fill="none" stroke="#003351" stroke-linecap="round" stroke-linejoin="round" d="M-74.2-78.4
			c-0.7,0-1.2-0.2-1.8-0.8c-0.5-0.5-0.7-1-0.7-1.7c0-0.7,0.2-1.2,0.7-1.8c0.5-0.5,1.1-0.7,1.8-0.7s1.2,0.2,1.7,0.7
			c0.5,0.5,0.8,1.1,0.8,1.8c0,0.7-0.2,1.2-0.8,1.7C-73-78.7-73.6-78.4-74.2-78.4v4.7h3.5l-7,7.3h3.5v6.7c0.9,0,1.8,0.1,2.6,0.2
			c2.6,0.5,4.9,1.7,6.9,3.6c1.9,1.9,3.1,4.1,3.6,6.6c0.2,0.9,0.3,1.9,0.3,2.9c0,0.1,0,0.1,0,0.2h23.1v58.5H-27
			c2.8,0,5.3,0.8,7.5,2.2v-35.7h2.7c-0.2-0.5-0.4-1.1-0.4-1.7c0-0.4,0-0.8,0.1-1.2h-2.5v-58.1l-10.9-6.3v-20.5h8.2v18.5l6.1,3.6
			C-16-86.9-16-87-16-87c0.8-0.8,1.8-1.2,3-1.2s2.1,0.4,3,1.2c0,0,0.1,0.1,0.1,0.2l6.1-3.6v-18.5h8.2v20.5l-11,6.3h0.1L-6.3-24h-2.2
			c0.1,0.4,0.1,0.8,0.1,1.2c0,0.6-0.1,1.2-0.3,1.7h2.3l0.1,58.1h-13.2c-2.3,1.5-4.8,2.2-7.5,2.2v82.7h-10.7v2.7l0.1,39.4h-2.5
			c0.1,0.4,0.1,0.8,0.1,1.2c0,0.6-0.1,1.2-0.4,1.7H-48c-0.2-0.5-0.4-1.1-0.4-1.7c0-0.4,0-0.8,0.1-1.2h-2.5l0-40.7l-0.1-1.4h-46.8
			v2.7l0.1,39.4h-2.6c0.1,0.4,0.2,0.8,0.2,1.2c0,0.6-0.1,1.2-0.4,1.7h-7.7c-0.2-0.5-0.4-1.1-0.4-1.7c0-0.4,0.1-0.8,0.2-1.2h-2.5
			l-0.1-40.7l-0.1-1.4h-10.8V39.1c-2.8,0-5.2-0.7-7.4-2.2h-0.2h-13h-0.1l0.1-58.1h0.1h2.2c-0.2-0.5-0.3-1.1-0.3-1.7
			c0-0.4,0.1-0.8,0.1-1.2h-2.1h-0.1l0.1-58.1h0.1l-10.9-6.3v-20.5h8.2v18.5l6.1,3.6c0-0.1,0.1-0.1,0.1-0.2c0.3-0.3,0.6-0.5,1-0.7
			c0.6-0.3,1.2-0.5,1.9-0.5c0,0,0.1,0,0.1,0c0,0,0.1,0,0.1,0c0,0,0.1,0,0.1,0c0.7,0,1.3,0.2,1.9,0.5c0.3,0.2,0.7,0.4,0.9,0.7
			c0,0,0.1,0.1,0.1,0.2l6.1-3.6v-18.5h8.2v20.5l-10.9,6.3h0.1l0.1,58.1h-0.2h-2.1c0.1,0.4,0.2,0.8,0.2,1.2c0,0.6-0.1,1.2-0.3,1.7
			h2.2h0.1l0.1,35.7c2.2-1.5,4.6-2.2,7.4-2.2h10.8v-58.5h23.1c0,0,0-0.1,0-0.2c0-1,0.1-2,0.3-2.9c0.5-2.5,1.7-4.7,3.6-6.6
			c2-2,4.4-3.2,7-3.7c0.8-0.1,1.6-0.2,2.5-0.2 M-19.5-82.1h2.8c-0.3-0.6-0.4-1.2-0.4-1.9c0-1.1,0.4-2,1.1-2.8 M-16.7-82.1h7.5
			c0.3-0.6,0.5-1.2,0.5-1.9c0-1.1-0.4-2-1.1-2.8 M-9.2-82.1h2.8 M-137.6-87.7c-0.3,0.2-0.6,0.4-0.9,0.7c0,0-0.1,0.1-0.1,0.2
			c-0.7,0.8-1.1,1.8-1.1,2.8c0,0.7,0.2,1.4,0.4,1.9h7.5c0.3-0.6,0.4-1.2,0.4-1.9c0-1.1-0.4-2-1.1-2.8c-0.1-0.1-0.1-0.1-0.2-0.2
			c-0.3-0.3-0.6-0.5-0.9-0.7 M-142.1-82.1h2.8 M-131.8-82.1h2.8V-24 M-83.7-23.1c0,2.7-1,5.1-2.9,7c-1.9,1.9-4.2,2.9-7,2.9
			c-2.7,0-5.1-1-7-2.9c-1.9-1.9-2.9-4.3-2.9-7c0-2.7,1-5.1,2.9-7c1.9-1.9,4.3-2.8,7-2.8c2.7,0,5.1,1,7,2.8
			C-84.7-28.1-83.7-25.8-83.7-23.1z M-131.1-24h-0.4c0.1,0.4,0.1,0.8,0.1,1.2c0,0.6-0.1,1.2-0.3,1.7h0.4 M-139.9-21.1h0.5
			c-0.2-0.5-0.4-1.1-0.4-1.7c0-0.4,0.1-0.8,0.1-1.2h-0.4 M-131.5-24h-8.1 M-139.4-21.1h7.7 M-128.9,14.6v22.3 M-95-4.9h8.9h6h5.9
			h5.4h5.8h9.6L-62-0.8l-1.1,0.6l-5.8,2.8l-5.4,2.6l-5.9-2.9l-6-2.9l-0.4-0.2L-95-4.9z M-58.2,36.7c0,4.4-1.6,8.2-4.7,11.3
			c-3.1,3.1-6.9,4.7-11.3,4.7c-4.4,0-8.2-1.6-11.4-4.7c-3.1-3.1-4.6-6.9-4.6-11.3c0-4.4,1.6-8.2,4.6-11.3c3.1-3.1,6.9-4.7,11.4-4.7
			c4.4,0,8.2,1.6,11.3,4.7C-59.8,28.5-58.2,32.3-58.2,36.7z M-129.1,36.9v-58.1 M-142.1,36.9v-58.1 M-16.8-21.1h8.1 M-8.5-24H-17
			 M-45-22.9c0,2.7-1,5.1-3,7c-1.9,1.9-4.2,2.9-6.9,2.9s-5.1-1-7-2.9c-1.9-1.9-2.9-4.3-2.9-7c0-2.7,1-5.1,2.9-7
			c1.9-1.9,4.3-2.9,7-2.9s5,0.9,6.9,2.9C-46-28-45-25.6-45-22.9z M-19.5,36.9V14.6 M-37.8,12.4h-73 M-110.8,121.9L-110.8,121.9h13.1
			h0 M-87.6-46.2h26.8 M-142.1-24v-58.1 M-103.5,70.4h7.2h7.4h7.4h7.4h7.4h7.4h7.4h6.9v8.5v8.5h-6.9h-7.4h-7.4h-7.4h-7.4h-7.4h-7.4
			h-7.2v-8.5V70.4z M-50.8,123.2v-1.4h-0.1 M-37.7,121.9L-37.7,121.9v2.7 M-37.8,121.9h-13 M-110.7,123.2v-1.4 M-97.6,121.9l0,2.7
			 M-99.8,166.8h2.2l0,44.9v13.2h-10.3h-2.8v-0.1l-27.4-0.1v-13.1l27.4,0.1l0.1-44.9h2.3 M-100.1,163.9h-8.1 M-110.8,211.6h13.1
			 M-107.9,224.9l-2.8-0.1 M-39.9,166.8h2.2l0,44.9l27.4-0.1v13.1l-27.4,0.1v0.1h-13.1v-13.2l0.1-44.9h2.3 M-40.1,163.9h-8.1
			 M-50.9,211.6h13.1 M-121.5,39.1V12.4 M-27,12.4v26.8"/>
	</g>
	<g>
		<path id="Layer1_0_2_STROKES" fill="none" stroke="#003351" stroke-linecap="round" stroke-linejoin="round" d="M-85.8-23.1
			c0,2.2-0.8,4-2.3,5.6c-1.5,1.5-3.4,2.3-5.6,2.3c-2.2,0-4-0.8-5.5-2.3s-2.3-3.4-2.3-5.6c0-2.1,0.8-4,2.3-5.5
			c1.5-1.5,3.4-2.3,5.5-2.3c2.2,0,4,0.8,5.6,2.3C-86.5-27-85.8-25.2-85.8-23.1z M-86.1-4.9v4.1h6v-4.1 M-86.1-0.6v-0.2h-0.4
			 M-71.6-59.4C-71.6-59.4-71.6-59.4-71.6-59.4c0,0.8-0.2,1.4-0.8,1.9c-0.5,0.5-1.1,0.7-1.8,0.8c-0.7,0-1.3-0.3-1.8-0.8
			c-0.5-0.5-0.8-1.1-0.8-1.8c0,0,0-0.1,0-0.2 M-47-22.9c0,2.2-0.8,4-2.3,5.5c-1.5,1.5-3.4,2.3-5.5,2.3c-2.2,0-4-0.8-5.6-2.3
			c-1.5-1.5-2.3-3.4-2.3-5.5c0-2.1,0.8-4,2.3-5.5c1.5-1.5,3.4-2.3,5.6-2.3c2.2,0,4,0.8,5.5,2.3C-47.8-26.9-47-25-47-22.9z
			 M-63.1-4.9v4.1h1.1 M-63.1-0.8v0.6 M-68.9-4.9v4.1h5.8 M-80.1-0.8h5.9v-4.1 M-80.1-0.8v3.1 M-74.2,5.1v-5.9h5.4v3.4 M-110.8,12.4
			v109.5 M-87.4-49.2h26.2 M-74.1,87.4v-8.5h-7.4v8.5 M-59.2,87.4v-8.5h-7.4v8.5 M-66.6,70.4v8.5h-7.4v-8.5 M-81.4,70.4v8.5h-7.4
			v8.5 M-45,78.9h-6.9v8.5 M-59.2,70.4v8.5h7.4v-8.5 M-96.2,70.4v8.5h7.4v-8.5 M-96.2,87.4v-8.5h-7.2 M-37.8,12.4v109.5"/>
	</g>
	<g>
		<path id="Layer1_0_3_STROKES" fill="none" stroke="#003351" stroke-width="2" stroke-linecap="round" stroke-linejoin="round" d="
			M-54.9,36.7c0,5.4-1.9,9.9-5.7,13.7c-3.8,3.8-8.3,5.7-13.7,5.7c-5.4,0-9.9-1.9-13.8-5.7c-3.8-3.8-5.6-8.3-5.6-13.7
			c0-5.4,1.9-9.9,5.6-13.8c3.8-3.8,8.4-5.6,13.8-5.6c5.4,0,9.9,1.9,13.7,5.6C-56.8,26.8-54.9,31.3-54.9,36.7z"/>
	</g>
</g>
</svg>
