<!-- Generator: Adobe Illustrator 18.1.1, SVG Export Plug-In  -->
<svg version="1.1"
	 xmlns="http://www.w3.org/2000/svg" xmlns:xlink="http://www.w3.org/1999/xlink" xmlns:a="http://ns.adobe.com/AdobeSVGViewerExtensions/3.0/"
	 x="0px" y="0px" width="40px" height="44px" viewBox="0 0 40 44" enable-background="new 0 0 40 44" xml:space="preserve">
<g>
	<g>
		<path fill="#FFFFFF" d="M11.8,28.4l-1.6,0.1c0,0.3,0,0.6,0,0.7c0,1.9,1.1,2.3,2,2.3c0.1,0,0.2,0,0.2,0c0,0,0,0,0,0l2.6-0.2
			c0.1-0.3,0.1-0.5,0.1-0.5s-0.3-16.3-0.4-18.3c0-0.5-0.1-0.8-0.3-1.1c-0.9-0.1-1.8-0.1-2.4-0.2c-0.1,0-0.2,0-0.3,0
			c-0.6,0-1.1,0.2-1.4,0.5c-0.5,0.5-0.4,1.2-0.4,1.2c0,0,0,0,0,0c0,0,0,0.5,0,1.2c1.3,0.1,2.2,0.1,2.2,0.1s1.4,0.3,1.5,1.8
			c0.1,1.6,0.1,10.6,0.1,10.6S13.8,28.1,11.8,28.4z"/>
		<path fill="#FFFFFF" d="M6.8,28.8L4.3,29c0,0-2.1,0.3-2.2-2c0-1.7-0.2-11.5-0.2-11.5s-0.1-1.8,2.1-1.7c0.7,0,1.6,0.1,2.7,0.2
			c0-1.6-0.1-3-0.1-4.1C5.1,9.7,3.8,9.6,2.9,9.5C0,9.2,0.1,11.6,0.1,11.6s0.3,17.9,0.4,20.1c0.1,2.6,2.9,2.2,2.9,2.2l3.5-0.4
			C6.9,32.3,6.9,30.6,6.8,28.8z"/>
	</g>
	<path fill="#FFFFFF" d="M37.9,6.5c-0.1-3.4-3.1-4.1-3.1-4.1S24.6,0.9,20.1,0.3c-4.5-0.6-4.2,3.8-4.2,3.8s1,31.7,1.1,35.6
		c0.1,4.7,4.5,3.9,4.5,3.9L36.9,41c2.8-0.6,2.9-4.1,2.9-4.1S38,10.2,37.9,6.5z M34.5,33.4L23,34.6c0,0-3.3,0.5-3.4-3.6
		c-0.1-3-0.7-20.1-0.7-20.1s-0.2-3.1,3.2-2.9C25.6,8.3,34,9,34,9s2.2,0.5,2.3,3.1c0.1,2.8,1.1,18.3,1.1,18.3S37.6,32.9,34.5,33.4z"
		/>
	<g>
		<path fill="#FFFFFF" d="M22.9,34l4.4-0.5c-0.2-4.5-1-22-1.1-24.5c0,0,0,0,0,0c-1.6-0.1-3.1-0.2-4.2-0.3c-0.1,0-0.2,0-0.3,0
			c-0.7,0-1.3,0.2-1.7,0.6c-0.6,0.6-0.6,1.7-0.6,1.7c0,0,0,0,0,0c0,0,0,0.1,0,0.3c1.8,0.2,3.2,0.3,3.2,0.3s1.9,0.4,2,2.5
			c0.1,2.3,0.6,14.7,0.6,14.7s0.2,2.1-2.5,2.5l-2.6,0.2c0.2,2.1,1.4,2.6,2.4,2.6C22.8,34,22.9,34,22.9,34L22.9,34
			C22.9,34,22.9,34,22.9,34z"/>
		<path fill="#FFFFFF" d="M16.2,31.8l-3.6,0.3c0,0-2.9,0.4-2.9-2.9c0-2.4-0.3-16.3-0.3-16.3s-0.2-2.6,2.8-2.4
			c0.9,0.1,2.1,0.2,3.4,0.3c-0.1-2.6-0.2-4.7-0.2-5.8c-1.7-0.2-3.4-0.3-4.6-0.5c-3.9-0.4-3.7,3-3.7,3S7.5,33,7.6,36.1
			c0.1,3.7,3.9,3.1,3.9,3.1l4.9-0.6C16.3,37.2,16.3,34.8,16.2,31.8z"/>
	</g>
</g>
</svg>
